<?xml version="1.0" standalone="no"?>
<!DOCTYPE svg PUBLIC "-//W3C//DTD SVG 20010904//EN"
 "http://www.w3.org/TR/2001/REC-SVG-20010904/DTD/svg10.dtd">
<svg version="1.0" xmlns="http://www.w3.org/2000/svg"
 width="300.000000pt" height="167.000000pt" viewBox="0 0 300.000000 167.000000"
 preserveAspectRatio="xMidYMid meet">
<metadata>
Created by potrace 1.10, written by Peter Selinger 2001-2011
</metadata>
<g transform="translate(0.000000,167.000000) scale(0.100000,-0.100000)"
fill="#000000" stroke="none">
<path d="M351 1494 l-31 -26 0 -601 c0 -566 2 -603 19 -626 17 -22 23 -23 159
-25 130 -1 143 1 162 19 20 20 20 30 20 630 l1 610 -26 23 c-24 20 -36 22
-150 22 -118 0 -125 -1 -154 -26z m299 -629 l0 -615 -145 0 -145 0 0 615 0
615 145 0 145 0 0 -615z"/>
<path d="M937 1505 c-32 -19 -30 -41 10 -89 55 -66 68 -105 68 -206 0 -108
-16 -154 -78 -228 -21 -24 -37 -48 -37 -53 0 -5 17 -26 38 -47 84 -85 118
-152 127 -249 11 -120 -26 -226 -109 -318 -25 -27 -46 -53 -46 -57 0 -5 9 -17
20 -28 17 -17 33 -20 114 -20 164 0 279 54 357 166 l32 47 43 -84 c50 -96 74
-118 107 -96 12 8 33 34 46 58 104 193 152 294 153 319 1 35 -399 846 -432
875 -20 18 -38 20 -204 23 -149 2 -186 -1 -209 -13z m394 -33 c4 -4 100 -197
214 -429 l208 -423 -62 -117 c-34 -65 -76 -148 -94 -185 -18 -37 -34 -67 -37
-67 -3 -1 -34 67 -70 149 -36 82 -68 150 -71 150 -4 0 -9 -22 -13 -48 -9 -69
-60 -149 -123 -193 -60 -41 -121 -56 -260 -62 -90 -4 -117 4 -70 22 34 13 86
77 113 138 52 117 49 266 -6 379 -28 57 -88 125 -121 136 -9 3 -2 15 23 37 21
18 50 58 65 89 25 51 28 68 28 157 0 122 -24 185 -91 243 l-44 37 203 -3 c111
-2 205 -7 208 -10z"/>
<path d="M1673 1504 c-24 -12 -33 -23 -33 -41 0 -14 29 -86 64 -161 35 -75 73
-158 85 -184 11 -26 55 -118 97 -205 42 -87 83 -176 92 -198 8 -22 21 -49 29
-60 7 -11 13 -25 13 -32 0 -8 10 -30 23 -51 13 -20 34 -62 46 -92 50 -118 106
-223 127 -236 40 -27 62 -3 144 156 24 47 56 109 72 138 15 29 28 67 28 85 -1
21 -71 172 -208 447 -190 381 -210 416 -242 432 -49 25 -289 26 -337 2z m360
-76 c14 -29 109 -223 212 -432 150 -301 186 -382 178 -395 -6 -10 -50 -93 -99
-186 l-87 -168 -22 49 c-23 50 -132 285 -333 714 -87 187 -191 406 -220 463
-2 4 75 7 171 7 l176 0 24 -52z"/>
<path d="M2373 1513 c-13 -2 -23 -8 -23 -13 0 -16 84 -22 288 -18 111 2 202 0
202 -3 0 -3 -10 -14 -22 -25 -30 -27 -127 -178 -162 -252 -31 -65 -46 -78 -46
-38 0 74 -134 256 -210 286 -19 7 -43 20 -52 28 -10 8 -18 11 -18 5 0 -14 26
-41 90 -93 69 -56 75 -64 130 -168 25 -47 53 -90 63 -96 23 -14 49 14 102 110
21 38 59 98 86 134 62 85 69 111 35 133 -22 15 -55 17 -233 16 -114 -1 -218
-4 -230 -6z"/>
</g>
</svg>
